<?xml version="1.0" encoding="UTF-8"?><svg id="logo-76" xmlns="http://www.w3.org/2000/svg" width="218" height="40" viewBox="0 0 218 40"><path d="M122.36,29.52h4.66V11.94h-4.66V29.52Zm0-20.33h4.66V5.01h-4.66v4.18Z" style="fill:#5924ce;"/><path d="M130.02,35.28h4.66v-7.75h.07c.99,1.51,2.61,2.5,5.07,2.5,4.53,0,7.61-3.6,7.61-9.29s-2.98-9.29-7.65-9.29c-2.4,0-4.05,1.13-5.18,2.67h-.1v-2.19h-4.49v23.35Zm8.81-9.12c-2.78,0-4.25-2.09-4.25-5.28s1.17-5.66,4.08-5.66,4.04,2.33,4.04,5.66-1.51,5.28-3.87,5.28Z" style="fill:#5924ce;"/><path d="M156.74,30.04c4.39,0,7.41-2.13,7.41-5.66,0-4.11-3.26-4.94-6.21-5.55-2.5-.51-4.83-.65-4.83-2.16,0-1.27,1.2-1.95,3.02-1.95,1.99,0,3.19,.69,3.39,2.57h4.22c-.34-3.53-2.91-5.83-7.54-5.83-4.01,0-7.17,1.82-7.17,5.62s3.09,4.7,6.24,5.31c2.4,.48,4.63,.65,4.63,2.33,0,1.23-1.17,2.02-3.22,2.02s-3.53-.89-3.84-2.91h-4.32c.27,3.74,3.12,6.21,8.23,6.21Z" style="fill:#5924ce;"/><path d="M181.85,29.52V11.94h-4.66v10.15c0,2.33-1.34,3.98-3.53,3.98-1.99,0-2.91-1.13-2.91-3.19V11.94h-4.63v11.73c0,3.84,2.19,6.34,6.1,6.34,2.47,0,3.84-.93,5.04-2.54h.1v2.06h4.49Z" style="fill:#5924ce;"/><path d="M184.87,29.52h4.66v-10.22c0-2.33,1.27-3.84,3.15-3.84,1.71,0,2.71,1.03,2.71,3.02v11.04h4.66v-10.22c0-2.33,1.2-3.84,3.15-3.84,1.71,0,2.71,1.03,2.71,3.02v11.04h4.66v-11.83c0-3.84-2.09-6.24-5.79-6.24-2.23,0-4.08,1.17-5.28,3.09h-.07c-.86-1.85-2.64-3.09-4.87-3.09-2.43,0-4.15,1.23-5.11,2.85h-.1v-2.37h-4.49V29.52Z" style="fill:#5924ce;"/><path d="M.82,29.52H5.49V5.01H.82V29.52Z" style="fill:#5924ce;"/><path d="M16.89,30.04c5.45,0,9.19-4.05,9.19-9.29s-3.74-9.29-9.19-9.29S7.7,15.5,7.7,20.75s3.74,9.29,9.19,9.29Zm0-3.57c-2.88,0-4.46-2.3-4.46-5.73s1.58-5.76,4.46-5.76,4.46,2.33,4.46,5.76-1.61,5.73-4.46,5.73Z" style="fill:#5924ce;"/><path d="M35.99,35.52c2.61,0,4.87-.62,6.34-1.99,1.3-1.2,2.09-2.88,2.09-5.35V11.94h-4.49v1.85h-.07c-1.06-1.47-2.67-2.33-4.87-2.33-4.46,0-7.61,3.36-7.61,8.61s3.84,8.4,7.75,8.4c2.23,0,3.57-.89,4.59-2.06h.1v1.92c0,2.4-1.27,3.67-3.91,3.67-2.16,0-3.15-.86-3.53-1.95h-4.63c.48,3.43,3.43,5.49,8.23,5.49Zm-.07-10.8c-2.4,0-3.98-1.75-3.98-4.73s1.58-4.8,3.94-4.8c2.81,0,4.18,2.19,4.18,4.77s-1.2,4.77-4.15,4.77Z" style="fill:#5924ce;"/><path d="M55.76,30.04c5.45,0,9.19-4.05,9.19-9.29s-3.74-9.29-9.19-9.29-9.19,4.05-9.19,9.29,3.74,9.29,9.19,9.29Zm0-3.57c-2.88,0-4.46-2.3-4.46-5.73s1.58-5.76,4.46-5.76,4.46,2.33,4.46,5.76-1.61,5.73-4.46,5.73Z" style="fill:#5924ce;"/><path d="M212.27,9.05c0-.79,.64-1.43,1.43-1.43h2.86c.79,0,1.43,.64,1.43,1.43s-.64,1.43-1.43,1.43h-2.86c-.79,0-1.43-.64-1.43-1.43Z" style="fill:#5924ce;"/><path d="M93.23,0c11.05,0,20,8.95,20,20s-8.95,20-20,20-20-8.95-20-20S82.18,0,93.23,0Zm-.72,1.5c-2.28,.32-4.45,2.15-6.14,5.22-.49,.89-.93,1.87-1.32,2.93,2.29-.58,4.81-.92,7.46-.97V1.5Zm-9.15,8.63c.48-1.5,1.06-2.88,1.74-4.11,.84-1.52,1.83-2.83,2.95-3.84-6.08,1.77-10.87,6.56-12.64,12.64,1.01-1.12,2.32-2.11,3.84-2.95,1.23-.68,2.61-1.26,4.11-1.74Zm-.48,1.69c-.58,2.29-.92,4.81-.97,7.46h-7.19c.32-2.28,2.15-4.45,5.22-6.14,.89-.49,1.87-.93,2.93-1.32Zm.48,7.46c.06-2.89,.48-5.59,1.16-7.99,2.39-.69,5.1-1.1,7.99-1.16v3.12c-1.08,2.76-3.27,4.95-6.03,6.03h-3.12Zm-1.45,1.45h-7.19c.32,2.28,2.15,4.45,5.22,6.14,.89,.49,1.87,.93,2.93,1.32-.58-2.29-.92-4.81-.97-7.46Zm2.61,7.99c-.69-2.39-1.1-5.1-1.16-7.99h3.12c2.76,1.08,4.95,3.27,6.03,6.03v3.12c-2.89-.06-5.59-.48-7.99-1.16Zm-1.16,1.16c-1.5-.48-2.88-1.06-4.11-1.74-1.52-.84-2.83-1.83-3.84-2.95,1.77,6.08,6.56,10.87,12.64,12.64-1.12-1.01-2.11-2.32-2.95-3.84-.68-1.23-1.26-2.61-1.74-4.11Zm9.15,8.63c-2.28-.32-4.45-2.15-6.14-5.22-.49-.89-.93-1.87-1.32-2.93,2.29,.58,4.81,.92,7.46,.97v7.19Zm5.91-.68c1.12-1.01,2.11-2.32,2.95-3.84,.67-1.23,1.26-2.61,1.74-4.11,1.5-.48,2.88-1.06,4.11-1.74,1.52-.84,2.83-1.83,3.84-2.95-1.77,6.08-6.56,10.87-12.64,12.64Zm2.99-7.47c-.38,1.06-.83,2.04-1.32,2.93-1.69,3.07-3.86,4.9-6.14,5.22v-7.19c2.64-.05,5.16-.39,7.46-.97Zm2.17-2.17c1.06-.38,2.04-.83,2.93-1.32,3.07-1.69,4.9-3.86,5.22-6.14h-7.19c-.05,2.64-.39,5.16-.97,7.46Zm-.48-7.46c-.06,2.89-.47,5.59-1.16,7.99-2.39,.69-5.1,1.1-7.99,1.16v-3.12c1.08-2.76,3.27-4.95,6.03-6.03h3.12Zm1.45-1.45h7.19c-.32-2.28-2.15-4.45-5.22-6.14-.89-.49-1.87-.93-2.93-1.32,.58,2.29,.92,4.81,.97,7.46Zm-2.61-7.99c.69,2.39,1.1,5.1,1.16,7.99h-3.12c-2.76-1.08-4.95-3.27-6.03-6.03v-3.12c2.89,.06,5.59,.48,7.99,1.16Zm1.16-1.16c1.5,.48,2.88,1.06,4.11,1.74,1.52,.84,2.83,1.83,3.84,2.95-1.77-6.08-6.56-10.87-12.64-12.64,1.12,1.01,2.11,2.32,2.95,3.84,.67,1.23,1.26,2.61,1.74,4.11ZM93.95,1.5c2.28,.32,4.45,2.15,6.14,5.22,.49,.89,.93,1.87,1.32,2.93-2.29-.58-4.81-.92-7.46-.97V1.5Z" style="fill:#5924ce; fill-rule:evenodd;"/></svg>